<svg width="520" height="438" viewBox="0 0 520 438" fill="none" xmlns="http://www.w3.org/2000/svg">
<path d="M345.672 333.745C288.988 380.172 273.295 347.175 211.191 304.371C185.21 286.464 126.625 280.373 83.1581 255.541C-7.07727 203.992 26.8146 108.451 107.212 42.6013C187.609 -23.248 306.165 -11.4541 372.014 68.9432C437.863 149.34 426.069 267.896 345.672 333.745ZM514.973 437.82H5.02661C2.26164 437.82 0 435.558 0 432.793V418.743C0 415.978 2.26216 413.716 5.02661 413.716H514.973C517.738 413.716 520 415.978 520 418.743V432.793C520 435.558 517.738 437.82 514.973 437.82Z" fill="white"/>
<path d="M439.751 374.761C443.138 366.151 446.553 356.582 443.38 347.891C442.609 345.78 441.448 343.545 442.143 341.407C443.083 338.522 446.88 337.491 448.165 334.741C449.578 331.718 447.364 328.155 447.939 324.868C448.523 321.526 451.793 319.36 454.965 318.154C458.136 316.948 461.623 316.22 464.179 313.99C469.096 309.7 468.505 302.02 467.423 295.585C466.34 289.149 465.532 281.555 470.235 277.031C461.582 278.685 452.719 280.419 445.193 285C437.668 289.581 431.646 297.689 432.089 306.487C432.31 310.901 434.057 315.608 432.037 319.539C429.855 323.783 423.983 325.432 422.501 329.969C420.799 335.181 425.881 339.901 427.887 345.005C429.771 349.798 428.879 355.174 429.302 360.307C429.724 365.44 432.417 371.246 437.509 372.013L439.751 374.761Z" fill="#00864A"/>
<path d="M436.245 363.442C436.162 338.399 440.989 285.99 469.923 277.242" stroke="white" stroke-width="0.75" stroke-miterlimit="10" stroke-linecap="round"/>
<path d="M419.581 372.663C414.431 363.048 409.116 352.314 411.634 341.701C412.246 339.123 413.298 336.346 412.189 333.94C410.692 330.69 406.104 330.006 404.221 326.963C402.151 323.618 404.253 319.142 403.127 315.372C401.983 311.539 397.856 309.453 393.977 308.477C390.098 307.502 385.915 307.13 382.615 304.87C376.267 300.524 375.903 291.45 376.284 283.766C376.666 276.082 376.567 267.078 370.438 262.429C380.797 263.175 391.414 263.984 400.855 268.313C410.296 272.642 418.464 281.306 419.156 291.669C419.504 296.868 418.106 302.619 421.014 306.943C424.152 311.612 431.254 312.735 433.614 317.842C436.324 323.711 431.024 329.937 429.377 336.189C427.83 342.06 429.615 348.232 429.826 354.301C430.038 360.369 427.685 367.538 421.827 369.137L419.581 372.663Z" fill="#90C42F"/>
<path d="M422.128 358.926C418.779 329.593 405.914 268.893 370.832 262.633" stroke="white" stroke-width="0.75" stroke-miterlimit="10" stroke-linecap="round"/>
<path d="M452.109 429.066H406.883C403.741 429.066 401.17 426.496 401.17 423.353L397.361 358.133C397.361 354.991 399.932 352.42 403.074 352.42H455.917C459.059 352.42 461.63 354.991 461.63 358.133L457.822 423.353C457.821 426.496 455.251 429.066 452.109 429.066Z" fill="#FFE4AD"/>
<path d="M53.7582 392.05C51.4499 386.181 49.1224 379.659 51.2851 373.735C51.8102 372.296 52.6022 370.773 52.1274 369.316C51.4867 367.349 48.8985 366.647 48.023 364.773C47.0599 362.712 48.5693 360.284 48.1775 358.043C47.7788 355.765 45.5504 354.289 43.3888 353.467C41.2272 352.645 38.8505 352.149 37.1082 350.629C33.7565 347.704 34.1598 342.47 34.8974 338.084C35.635 333.697 36.1861 328.521 32.9805 325.438C38.8785 326.565 44.92 327.746 50.0488 330.869C55.1775 333.992 59.283 339.518 58.9808 345.515C58.8294 348.524 57.6387 351.732 59.016 354.411C60.5032 357.304 64.5055 358.428 65.5153 361.52C66.6754 365.073 63.2117 368.29 61.8442 371.769C60.5597 375.035 61.1683 378.7 60.8801 382.199C60.5918 385.697 58.7573 389.655 55.2858 390.177L53.7582 392.05Z" fill="#90C42F"/>
<path d="M56.1482 384.336C56.2053 367.268 52.9147 331.545 33.1934 325.583" stroke="white" stroke-width="0.75" stroke-miterlimit="10" stroke-linecap="round"/>
<path d="M67.5071 390.62C71.0175 384.066 74.6404 376.75 72.9236 369.516C72.5063 367.759 71.7894 365.866 72.5451 364.226C73.5658 362.011 76.6931 361.545 77.9766 359.471C79.3876 357.191 77.9548 354.14 78.722 351.57C79.5022 348.957 82.3148 347.536 84.959 346.871C87.6032 346.206 90.4537 345.952 92.7034 344.412C97.0302 341.45 97.2785 335.265 97.0183 330.028C96.7581 324.79 96.8255 318.653 101.004 315.484C93.9428 315.993 86.7059 316.544 80.2709 319.495C73.8359 322.446 68.2686 328.351 67.7969 335.415C67.56 338.958 68.5128 342.878 66.531 345.825C64.3917 349.008 59.5507 349.773 57.9427 353.254C56.0953 357.254 59.7078 361.498 60.8306 365.759C61.8849 369.761 60.6683 373.968 60.5242 378.104C60.3801 382.24 61.9839 387.126 65.9764 388.217L67.5071 390.62Z" fill="#00864A"/>
<path d="M65.7695 381.259C68.0519 361.265 76.8211 319.892 100.733 315.625" stroke="white" stroke-width="0.75" stroke-miterlimit="10" stroke-linecap="round"/>
<path d="M45.3357 429.065H76.1614C78.3028 429.065 80.0554 427.313 80.0554 425.171L82.6514 380.717C82.6514 378.576 80.8993 376.823 78.7574 376.823H42.7397C40.5983 376.823 38.8457 378.575 38.8457 380.717L41.4417 425.171C41.4422 427.313 43.1943 429.065 45.3357 429.065Z" fill="#FFE4AD"/>
<path d="M451.25 20.471V239.248C451.25 244.074 447.305 248.024 442.479 248.024H94.7994C89.9734 248.024 86.0234 244.074 86.0234 239.248V20.471C86.0234 15.645 89.9734 11.7002 94.7994 11.7002H442.479C447.305 11.7002 451.25 15.645 451.25 20.471Z" stroke="#CCE9FF" stroke-width="2" stroke-miterlimit="10"/>
<path d="M462.652 9.06765V227.845C462.652 230.478 461.475 232.852 459.625 234.459C459.35 234.708 459.055 234.931 458.749 235.138C457.354 236.076 455.675 236.621 453.881 236.621H106.202C104.408 236.621 102.729 236.076 101.334 235.138C98.9809 233.557 97.4258 230.872 97.4258 227.845V9.06765C97.4258 4.24165 101.376 0.296875 106.202 0.296875H453.881C458.707 0.296875 462.652 4.24165 462.652 9.06765Z" fill="#F3FAFF"/>
<path d="M273.628 189.745C311.337 189.745 341.905 159.176 341.905 121.468C341.905 83.76 311.337 53.1914 273.628 53.1914C235.92 53.1914 205.352 83.76 205.352 121.468C205.352 159.176 235.92 189.745 273.628 189.745Z" fill="#CCE9FF"/>
<path d="M279.624 195.741C317.333 195.741 347.901 165.173 347.901 127.464C347.901 89.7561 317.333 59.1875 279.624 59.1875C241.916 59.1875 211.348 89.7561 211.348 127.464C211.348 165.173 241.916 195.741 279.624 195.741Z" stroke="#CCE9FF" stroke-miterlimit="10"/>
<path d="M232.042 160.085L233.235 156.975C233.235 156.975 238.563 153.153 239.056 151.59C238.636 151.286 235.856 152.473 235.132 152.589C235.787 150.957 237.393 147.414 238.514 145.911C238.84 145.474 238.56 144.846 238.016 144.827C236.537 144.777 234.005 145.449 232.222 146.002C229.37 149.056 229.037 153.935 229.992 155.267C229.195 157.382 227.902 159.726 227.902 159.726L232.042 160.085Z" fill="#F8CDBA"/>
<path d="M228.938 156.605L233.085 159.716L223.495 182.783L219.074 174.984L228.938 156.605Z" fill="#2F318B"/>
<path d="M262.388 156.471L255.938 161.909C256.425 161.497 256.859 161.039 257.228 160.537L263.678 155.099C263.309 155.6 262.876 156.059 262.388 156.471Z" fill="#FCAD00"/>
<path d="M275.747 135.334L282.197 129.896L263.677 155.101L257.227 160.538L275.747 135.334Z" fill="#737D85"/>
<g opacity="0.55">
<path opacity="0.55" d="M249.323 72.3357C248.949 72.2963 248.571 72.2714 248.193 72.2621L247.405 72.2444C244.246 72.1693 241.646 73.107 239.855 74.617L233.404 80.0552C235.195 78.5452 237.795 77.6075 240.954 77.6826L241.742 77.7003C242.121 77.7096 242.497 77.7345 242.873 77.7739C246.243 78.1279 249.429 79.6732 251.5 82.0084L273.259 106.494L279.71 101.055L257.951 76.5702C255.88 74.2345 252.694 72.6897 249.323 72.3357ZM324.104 146.674L295.09 115.629L316.485 87.7789C320.724 82.2609 315.358 74.5926 307.088 73.7239C306.695 73.6824 306.296 73.6565 305.88 73.6456C302.911 73.5741 300.195 74.4589 298.301 76.0555L291.85 81.4937C293.744 79.8971 296.46 79.0128 299.43 79.0838C299.846 79.0947 300.245 79.1206 300.637 79.1621C308.907 80.0314 314.273 87.6996 310.034 93.2171L288.639 121.067L317.653 152.112C321.288 156.004 320.713 160.666 317.444 163.421L323.895 157.983C327.163 155.227 327.739 150.565 324.104 146.674Z" fill="#737D85"/>
</g>
<path d="M300.637 79.1599C308.907 80.0292 314.273 87.6974 310.034 93.2149L288.639 121.065L317.653 152.11C323.281 158.134 318.817 166.003 309.894 165.791L309.076 165.77C308.696 165.761 308.316 165.737 307.94 165.697C304.6 165.346 301.442 163.823 299.366 161.525L275.747 135.332L257.227 160.536C255.427 162.984 252.097 164.404 248.36 164.315C247.956 164.305 247.556 164.279 247.164 164.238C238.891 163.368 233.525 155.697 237.772 150.176L260.512 120.639L233.193 91.3539C227.573 85.331 232.036 77.4689 240.956 77.681L241.744 77.6986C242.122 77.7079 242.499 77.7328 242.874 77.7722C246.245 78.1262 249.431 79.6715 251.502 82.0067L273.261 106.492L290.552 82.8745C292.351 80.4184 295.689 78.9919 299.43 79.0816C299.846 79.093 300.245 79.1189 300.637 79.1599ZM193.169 274.273C189.022 284.122 157.402 371.208 167.251 408.531C178.136 408.531 179.173 408.531 179.173 408.531C179.173 408.531 211.83 305.375 211.83 303.302C211.83 314.706 215.977 398.682 219.087 408.531C225.308 409.567 234.12 408.531 234.12 408.531C234.12 408.531 238.785 292.935 235.675 273.755C219.087 271.682 193.169 274.273 193.169 274.273Z" fill="#1E1E1E"/>
<path d="M234.863 275.248L192.367 277.544C190.896 277.623 190.191 275.766 191.344 274.849C191.964 274.356 192.33 273.62 192.385 272.829C192.453 271.829 192.787 271.052 193.886 270.993L234.514 268.798C235.87 268.725 235.801 269.661 235.833 270.947C235.839 271.227 235.957 271.495 236.161 271.688C236.9 272.393 237.099 273.553 236.513 274.39C236.165 274.888 235.617 275.208 234.863 275.248Z" fill="#525866"/>
<path d="M227.805 200.073L254.854 159.716L260.038 162.826L229.195 219.587C229.195 219.587 232.802 236.144 233.601 242.136C234.172 246.416 236.627 250.224 238.719 253.648C241.22 257.741 241.122 262.918 238.455 266.904C236.763 269.435 235.156 271.683 235.156 271.683C229.454 272.202 197.834 276.349 191.614 271.683C185.393 267.018 190.058 261.834 190.058 261.834C190.058 261.834 197.468 249.597 196.873 240.424C196.279 231.251 194.724 206.369 194.724 206.369L227.805 200.073Z" fill="#2F318B"/>
<path d="M255.75 160.253L257.447 157.643C257.447 157.643 255.373 151.422 255.892 149.867C256.41 149.867 257.965 152.459 258.483 152.977C258.91 151.271 259.688 147.46 259.661 145.585C259.653 145.04 260.248 144.695 260.7 145C261.927 145.826 263.584 147.856 264.704 149.349C265.222 153.496 262.63 157.643 261.075 158.161C259.52 160.234 259.313 162.391 259.313 162.391L255.75 160.253Z" fill="#F8CDBA"/>
<path d="M168.785 408.532L168.806 413.198H176.063V408.532H168.785Z" fill="#FFE3CA"/>
<path d="M222.178 408.532L222.198 413.198H229.456V408.532H222.178Z" fill="#FFE3CA"/>
<path d="M232.565 424.084C232.565 424.504 231.627 424.883 230.227 425.168C226.417 425.935 219.186 425.976 218.051 424.084C217.341 422.903 218.139 420.228 219.217 417.677C220.498 414.64 222.177 411.768 222.177 411.768H229.455C231.01 415.272 232.565 422.529 232.565 424.084ZM180.21 424.084C180.21 424.566 178.811 424.986 176.836 425.261C172.45 425.868 165.214 425.748 164.141 423.96C163.472 422.845 164.141 420.42 165.12 418.014C166.416 414.816 168.267 411.644 168.267 411.644H175.545C177.1 415.148 180.21 422.529 180.21 424.084Z" fill="#1E1E1E"/>
<path d="M176.836 425.26C172.45 425.866 165.214 425.747 164.141 423.959C163.472 422.844 164.141 420.418 165.12 418.013C166.225 417.417 167.479 417.085 168.806 417.085C173.202 417.085 176.779 420.734 176.836 425.26ZM230.227 425.166C226.417 425.934 219.186 425.975 218.051 424.083C217.341 422.901 218.139 420.226 219.217 417.676C220.14 417.292 221.146 417.085 222.198 417.085C226.568 417.085 230.119 420.682 230.227 425.166Z" fill="#1E1E1E"/>
<path d="M225.049 183.043C225.049 188.939 224.347 193.092 219.606 193.092C214.866 193.092 208.721 188.73 208.721 182.834C208.721 176.937 212.563 172.157 217.304 172.157C222.044 172.157 225.049 177.147 225.049 183.043Z" fill="#F8CDBA"/>
<path d="M218.051 176.304C223.753 175.267 232.047 165.936 224.271 162.308C216.496 158.679 201.981 157.642 195.761 167.491C189.541 177.34 197.316 185.116 198.353 190.299C199.39 195.483 194.983 199.371 188.763 204.555C182.543 209.738 173.471 230.214 189.022 237.471C204.573 244.728 229.455 239.026 231.01 215.699C232.565 192.373 211.83 189.263 211.83 187.189C211.83 185.116 218.051 176.304 218.051 176.304Z" fill="#1E1E1E"/>
<path d="M214.953 184.108C216.411 183.692 217.142 181.778 216.586 179.834C216.03 177.891 214.398 176.653 212.94 177.07C211.482 177.487 210.751 179.401 211.307 181.344C211.863 183.288 213.495 184.525 214.953 184.108Z" fill="#FFE3CA"/>
<path d="M462.652 9.06765V20.0156H97.4258V9.06765C97.4258 4.24165 101.376 0.296875 106.202 0.296875H453.881C458.707 0.296875 462.652 4.24165 462.652 9.06765ZM225.845 46.2253H114.875C112.748 46.2253 111.007 44.4846 111.007 42.3572V39.953C111.007 37.8257 112.748 36.085 114.875 36.085H225.846C227.973 36.085 229.714 37.8257 229.714 39.953V42.3572C229.713 44.4846 227.973 46.2253 225.845 46.2253ZM194.78 62.5217H114.32C112.498 62.5217 111.007 61.0309 111.007 59.2088V55.6948C111.007 53.8728 112.498 52.3819 114.32 52.3819H194.78C196.602 52.3819 198.093 53.8728 198.093 55.6948V59.2088C198.093 61.0309 196.602 62.5217 194.78 62.5217ZM203.428 78.5911H114.484C112.571 78.5911 111.007 77.0267 111.007 75.1144V71.9275C111.007 70.0152 112.571 68.4508 114.484 68.4508H203.429C205.341 68.4508 206.906 70.0152 206.906 71.9275V75.1144C206.905 77.0267 205.341 78.5911 203.428 78.5911ZM448.983 227.363H391.962C388.541 227.363 385.742 224.563 385.742 221.142V171.897C385.742 168.476 388.541 165.677 391.962 165.677H448.983C452.404 165.677 455.203 168.476 455.203 171.897V221.142C455.203 224.563 452.404 227.363 448.983 227.363Z" fill="#006DB8"/>
<path opacity="0.2" d="M225.846 46.2272H114.876C112.748 46.2272 111.008 44.4865 111.008 42.3592V39.955C111.008 37.8276 112.748 36.0869 114.876 36.0869H225.846C227.974 36.0869 229.715 37.8276 229.715 39.955V42.3592C229.714 44.4865 227.973 46.2272 225.846 46.2272ZM194.781 62.5237H114.321C112.499 62.5237 111.008 61.0328 111.008 59.2108V55.6968C111.008 53.8747 112.499 52.3839 114.321 52.3839H194.781C196.603 52.3839 198.094 53.8747 198.094 55.6968V59.2108C198.094 61.0328 196.603 62.5237 194.781 62.5237ZM203.429 78.5931H114.485C112.572 78.5931 111.008 77.0286 111.008 75.1164V71.9294C111.008 70.0172 112.572 68.4527 114.485 68.4527H203.43C205.342 68.4527 206.906 70.0172 206.906 71.9294V75.1164C206.906 77.0286 205.341 78.5931 203.429 78.5931ZM448.984 227.365H391.963C388.542 227.365 385.743 224.565 385.743 221.144V171.899C385.743 168.478 388.542 165.679 391.963 165.679H448.984C452.405 165.679 455.204 168.478 455.204 171.899V221.144C455.204 224.565 452.405 227.365 448.984 227.365Z" fill="white"/>
</svg>